# xmcd
#
# Track frame offsets:
#	150
#	17198
#	33715
#	51560
#	69329
#	87516
#	104426
#	123431
#	138798
#	156850
#
# Disc length: 2323 seconds
#
# Revision: 0
# Processed by: cddbd v1.4PL0 Copyright (c) Steve Scherf et al.
# Submitted via: EasyCDDAExtractor 5.0.2.1
#
DISCID=8b09110a
DTITLE=Tontxu - Corazón de mudanza
DYEAR=1998
DGENRE=vocal
TTITLE0=Qué fue aquello
TTITLE1=Treita y tantos
TTITLE2=Temprana
TTITLE3=Madrid - Barcelona
TTITLE4=Corazón de mudanza
TTITLE5=Mientes
TTITLE6=Aplausos
TTITLE7=Gila
TTITLE8=Todos dicen te quiero
TTITLE9=Copas en un bar
EXTD=
EXTT0=
EXTT1=
EXTT2=
EXTT3=
EXTT4=
EXTT5=
EXTT6=
EXTT7=
EXTT8=
EXTT9=
PLAYORDER=
